<svg width="29" height="19" viewBox="0 0 29 19" fill="none" xmlns="http://www.w3.org/2000/svg">
<g id="american express">
<g id="Group 3">
<mask id="mask0_35519_3928" style="mask-type:luminance" maskUnits="userSpaceOnUse" x="0" y="0" width="29" height="19">
<path id="Clip 2" fill-rule="evenodd" clip-rule="evenodd" d="M0.927734 0.956055H28.3536V18.097H0.927734V0.956055Z" fill="white"/>
</mask>
<g mask="url(#mask0_35519_3928)">
<path id="Fill 1" fill-rule="evenodd" clip-rule="evenodd" d="M28.3536 17.1831C28.3536 17.688 27.9441 18.0971 27.4392 18.0971H1.84171C1.33684 18.0971 0.927734 17.688 0.927734 17.1831V1.87003C0.927734 1.36516 1.33684 0.956055 1.84171 0.956055H27.4392C27.9441 0.956055 28.3536 1.36516 28.3536 1.87003V17.1831Z" fill="#0078A9"/>
</g>
</g>
<path id="Fill 4" fill-rule="evenodd" clip-rule="evenodd" d="M9.43723 9.12747V8.85328L9.30604 9.12747H8.17056L8.028 8.83317V9.12747H5.90552L5.65472 8.53383H5.22944L4.96377 9.12747H3.86328V7.3356L4.6699 5.51027H6.2147L6.4316 6.02739V5.5142H8.32056L8.73601 6.38489L9.14249 5.51027H15.1061C15.1061 5.51027 15.4185 5.50611 15.6245 5.65086L15.6232 5.51027H17.1256V5.70793C17.1256 5.70793 17.3958 5.51027 17.7953 5.51027H20.4465L20.6792 6.03504V5.51027H22.3781L22.6864 6.03504V5.51027H24.3104V9.13097H22.642L22.25 8.49972V9.12747H20.176L19.8843 8.48091H19.4779L19.2045 9.12747H17.9495C17.9495 9.12747 17.4813 9.12157 17.1304 8.87034V9.12747H14.6316V8.28281C14.6316 8.16015 14.5376 8.16867 14.5376 8.16867H14.4462V9.12747H9.43723Z" fill="white"/>
<path id="Fill 6" fill-rule="evenodd" clip-rule="evenodd" d="M8.18945 9.91162H11.4728L11.9468 10.448L12.4314 9.91162H14.9557C14.9557 9.91162 15.1928 9.91752 15.418 10.0376V9.91162H17.666C17.9513 9.91162 18.1907 10.0542 18.1907 10.0542V9.91162H21.0803V10.0433C21.0803 10.0433 21.286 9.91162 21.5628 9.91162H23.4452V10.0433C23.4452 10.0433 23.6822 9.91162 23.933 9.91162H25.4112V13.3235C25.4112 13.3235 25.2168 13.5433 24.8149 13.5433H22.8662V13.4348C22.8662 13.4348 22.6808 13.5433 22.3981 13.5433H17.2219V12.6614C17.2219 12.5748 17.1843 12.5589 17.1069 12.5589H17.0356V13.5433H15.418V12.565C15.418 12.565 15.2385 12.6614 14.9387 12.6614H14.3571V13.5433H12.3631L11.9096 12.9898L11.4245 13.5433H8.18945V9.91162Z" fill="white"/>
<path id="Fill 8" fill-rule="evenodd" clip-rule="evenodd" d="M18.5381 10.4561H20.5987V11.0086H19.1689V11.4903H20.5585V11.9772H19.1689V12.4841H20.5987V13.0231H18.5381V10.4561Z" fill="#0078A9"/>
<path id="Fill 10" fill-rule="evenodd" clip-rule="evenodd" d="M24.5795 11.4564C25.3538 11.4962 25.4187 11.883 25.4187 12.2956C25.4187 12.7764 25.0232 13.0349 24.6108 13.0349H23.2868V12.4843H24.3182C24.4931 12.4843 24.7538 12.4843 24.7538 12.2379C24.7538 12.1209 24.7081 12.0461 24.5218 12.0264C24.4389 12.0146 24.1328 11.9976 24.0862 11.9967C23.3867 11.9783 23.2236 11.6302 23.2236 11.2065C23.2236 10.7252 23.5619 10.4622 23.9747 10.4622H25.2982V11.0123H24.3296C24.1094 11.0145 23.8715 10.9863 23.8715 11.2351C23.8715 11.3928 23.9889 11.4245 24.1378 11.4389C24.1897 11.4389 24.5334 11.4568 24.5795 11.4564Z" fill="#0078A9"/>
<path id="Fill 12" fill-rule="evenodd" clip-rule="evenodd" d="M22.2061 11.4564C22.9808 11.4962 23.0458 11.883 23.0458 12.2956C23.0458 12.7764 22.6507 13.0349 22.2378 13.0349H20.9143V12.4843H21.9457C22.1202 12.4843 22.3813 12.4843 22.3813 12.2379C22.3813 12.1209 22.3351 12.0461 22.1488 12.0264C22.066 12.0146 21.7594 11.9976 21.7137 11.9967C21.0134 11.9783 20.8516 11.6302 20.8516 11.2065C20.8516 10.7252 21.1894 10.4622 21.6018 10.4622H22.9253V11.0123H21.9571C21.7365 11.0145 21.4986 10.9863 21.4986 11.2351C21.4986 11.3928 21.6164 11.4245 21.7653 11.4389C21.8167 11.4389 22.1604 11.4568 22.2061 11.4564Z" fill="#0078A9"/>
<path id="Fill 14" fill-rule="evenodd" clip-rule="evenodd" d="M14.5208 11.6287H13.7358V11.0125H14.5234C14.7873 11.0125 14.8706 11.1816 14.8706 11.3075C14.8706 11.4796 14.7788 11.6287 14.5208 11.6287ZM13.0999 12.7821L12.1945 11.7107L13.0999 10.7079V12.7821ZM10.6908 12.4841H9.23763V11.9772H10.6276V11.4903H9.23763V11.0086L10.7704 11.0121L11.3839 11.7107L10.6908 12.4841ZM14.7331 10.4615H12.5212L11.7992 11.2581L11.1003 10.4561H8.61621V13.0231H11.0197L11.7764 12.1749L12.5153 13.029H13.7246V12.1574H14.5724C14.899 12.1574 15.4953 12.1463 15.4953 11.2465C15.4953 10.6045 15.0427 10.4615 14.7331 10.4615Z" fill="#0078A9"/>
<path id="Fill 16" fill-rule="evenodd" clip-rule="evenodd" d="M17.2337 11.5941H16.4487V11.0125H17.2363C17.4998 11.0125 17.5831 11.1815 17.5831 11.3075C17.5831 11.4793 17.4917 11.5941 17.2337 11.5941ZM17.7777 11.8598C18.1219 11.6881 18.2133 11.4588 18.2133 11.1491C18.2133 10.5994 17.7668 10.4619 17.457 10.4619H15.8184V13.0289H16.4487V12.1233H17.2739C17.4917 12.1233 17.5774 12.341 17.5831 12.5588L17.5997 13.0289H18.2133L18.1903 12.5015C18.1903 12.0887 18.0764 11.8939 17.7777 11.8598Z" fill="#0078A9"/>
<mask id="mask1_35519_3928" style="mask-type:luminance" maskUnits="userSpaceOnUse" x="0" y="0" width="29" height="19">
<path id="Clip 19" fill-rule="evenodd" clip-rule="evenodd" d="M0.927734 18.0971H28.3536V0.956055H0.927734V18.0971Z" fill="white"/>
</mask>
<g mask="url(#mask1_35519_3928)">
<path id="Fill 18" fill-rule="evenodd" clip-rule="evenodd" d="M16.0713 8.59448H16.7017V6.02441H16.0713V8.59448Z" fill="#0078A9"/>
<path id="Fill 20" fill-rule="evenodd" clip-rule="evenodd" d="M10.9111 6.02759H12.9709V6.58013H11.5415V7.06183H12.9306V7.54877H11.5415V8.05561H12.9709V8.5946H10.9111V6.02759Z" fill="#0078A9"/>
<path id="Fill 21" fill-rule="evenodd" clip-rule="evenodd" d="M14.7611 7.15954H13.9761V6.57792H14.7641C15.0272 6.57792 15.1109 6.74694 15.1109 6.87288C15.1109 7.04518 15.0191 7.15954 14.7611 7.15954ZM15.3055 7.4252C15.6497 7.254 15.7411 7.02419 15.7411 6.71458C15.7411 6.16444 15.2941 6.02734 14.9847 6.02734H13.3457V8.59435H13.9761V7.68912H14.8013C15.0191 7.68912 15.1052 7.90646 15.1109 8.12424L15.128 8.59435H15.7411L15.7185 8.06696C15.7185 7.65457 15.6038 7.45975 15.3055 7.4252Z" fill="#0078A9"/>
<path id="Fill 22" fill-rule="evenodd" clip-rule="evenodd" d="M5.01741 7.46765L5.39328 6.57029L5.78489 7.46765H5.01741ZM9.45808 6.02759L8.68448 7.7495L7.91372 6.02759H6.92562V8.49992L5.82534 6.02759H4.99139L3.86816 8.5946H4.53309L4.77908 8.0215H6.03722L6.28671 8.5946H7.55534V6.68902L8.39804 8.5946H8.97113L9.83329 6.72072V8.5946H10.4637V6.02759H9.45808Z" fill="#0078A9"/>
<path id="Fill 23" fill-rule="evenodd" clip-rule="evenodd" d="M19.3333 7.46881L19.7087 6.57145L20.104 7.46881H19.3333ZM23.2046 6.02612V7.80357L22.1417 6.02612H21.2102V8.43701L20.1366 6.02743H19.3024L18.4344 8.01588C18.4344 8.01588 18.0675 8.01588 18.0303 8.00692C17.8788 7.97565 17.6413 7.86851 17.6383 7.41589V7.2296C17.6383 6.62786 17.9649 6.58391 18.3839 6.58391H18.7729V6.02612H17.9501C17.6634 6.02612 17.04 6.24478 17.019 7.29935C17.0046 8.00998 17.3142 8.59576 18.0133 8.59576H18.8444L19.0904 8.02266H20.3481L20.5973 8.59576H21.841V6.71598L22.9752 8.59576H23.8349V6.02612H23.2046Z" fill="#0078A9"/>
</g>
</g>
</svg>
