<svg width="59" height="12" viewBox="0 0 59 12" fill="none" xmlns="http://www.w3.org/2000/svg">
<g id="Group">
<path id="Vector" d="M57.2611 2.77884L55.5378 1.82792L53.7896 0.862577C52.6341 0.22382 51.1898 1.02587 51.1898 2.31298V2.52911C51.1898 2.64917 51.2545 2.75963 51.3641 2.81727L52.1759 3.26392C52.4 3.38879 52.679 3.2303 52.679 2.98056V2.46667C52.679 2.21213 52.9628 2.05364 53.1919 2.17851L54.7857 3.0622L56.3745 3.94109C56.6036 4.06596 56.6036 4.38774 56.3745 4.51261L54.7857 5.3915L53.1919 6.27519C52.9628 6.40006 52.679 6.24158 52.679 5.98703V5.73249C52.679 4.44537 51.2346 3.63852 50.0791 4.28208L48.3309 5.24742L46.6077 6.19835C45.4472 6.84191 45.4472 8.46041 46.6077 9.10397L48.3309 10.0549L50.0791 11.0202C51.2346 11.659 52.679 10.8569 52.679 9.56983V9.35371C52.679 9.23364 52.6142 9.12318 52.5046 9.06555L51.6928 8.6189C51.4687 8.49403 51.1898 8.65252 51.1898 8.90226V9.41615C51.1898 9.67069 50.9059 9.82918 50.6768 9.70431L49.083 8.82061L47.4942 7.94172C47.2651 7.81685 47.2651 7.49507 47.4942 7.37021L49.083 6.49131L50.6768 5.60762C50.9059 5.48275 51.1898 5.64124 51.1898 5.89578V6.15033C51.1898 7.43744 52.6341 8.24429 53.7896 7.60073L55.5378 6.63539L57.2611 5.68446C58.4215 5.0361 58.4215 3.4224 57.2611 2.77884Z" fill="black"/>
<g id="Group_2">
<path id="Vector_2" d="M45.9552 3.0957L41.9209 11.1306H40.2475L41.7566 8.12891L39.3809 3.0957H41.0992L42.6232 6.46718L44.2867 3.0957H45.9552Z" fill="black"/>
</g>
<g id="Group_3">
<g id="Group_4">
<path id="Vector_3" d="M5.61775 5.94876C5.61775 4.98823 4.89557 4.31585 4.00904 4.31585C3.1225 4.31585 2.40032 5.00264 2.40032 5.94876C2.40032 6.88528 3.1225 7.58167 4.00904 7.58167C4.89557 7.58167 5.61775 6.9093 5.61775 5.94876ZM5.6327 8.80155V8.06194C5.19441 8.57583 4.54195 8.8928 3.76499 8.8928C2.14133 8.8928 0.911133 7.6393 0.911133 5.94876C0.911133 4.27263 2.19113 2.99512 3.79985 2.99512C4.5569 2.99512 5.19441 3.3169 5.6327 3.81637V3.09597H7.08702V8.80155H5.6327Z" fill="black"/>
<path id="Vector_4" d="M14.1594 7.53349C13.6514 7.53349 13.5069 7.35099 13.5069 6.87072V4.33971H14.4433V3.09582H13.5069V1.70304H12.0177V3.09582H10.0953V2.5291C10.0953 2.04884 10.2845 1.86633 10.8075 1.86633H11.1362V0.761719H10.419C9.18879 0.761719 8.60607 1.15073 8.60607 2.337V3.10062H7.7793V4.33971H8.60607V8.8014H10.0953V4.33971H12.0177V7.13487C12.0177 8.29712 12.4809 8.8014 13.6862 8.8014H14.4532V7.53349H14.1594Z" fill="black"/>
<path id="Vector_5" d="M19.5087 5.4348C19.4041 4.69518 18.7765 4.24854 18.0394 4.24854C17.3073 4.24854 16.6996 4.68078 16.5502 5.4348H19.5087ZM16.5353 6.32329C16.6399 7.16856 17.2674 7.64883 18.0643 7.64883C18.6919 7.64883 19.175 7.36547 19.4589 6.90922H20.9879C20.6343 8.1195 19.5087 8.89273 18.0294 8.89273C16.2414 8.89273 14.9863 7.68245 14.9863 5.95829C14.9863 4.23413 16.3112 2.99023 18.0643 2.99023C19.8274 2.99023 21.1074 4.24373 21.1074 5.95829C21.1074 6.08316 21.0975 6.20803 21.0726 6.32329H16.5353Z" fill="black"/>
<path id="Vector_6" d="M30.59 5.94868C30.59 5.02657 29.8678 4.31577 28.9813 4.31577C28.0948 4.31577 27.3726 5.00256 27.3726 5.94868C27.3726 6.88521 28.0948 7.5816 28.9813 7.5816C29.8678 7.5816 30.59 6.8756 30.59 5.94868ZM25.9033 11.1308V3.09589H27.3576V3.83551C27.7959 3.31201 28.4484 2.99023 29.2253 2.99023C30.8241 2.99023 32.0792 4.25814 32.0792 5.93428C32.0792 7.61041 30.7992 8.88793 29.1905 8.88793C28.4434 8.88793 27.8308 8.60457 27.4025 8.1243V11.126H25.9033V11.1308Z" fill="black"/>
<path id="Vector_7" d="M37.3238 5.94876C37.3238 4.98823 36.6016 4.31585 35.7151 4.31585C34.8286 4.31585 34.1064 5.00264 34.1064 5.94876C34.1064 6.88528 34.8286 7.58167 35.7151 7.58167C36.6016 7.58167 37.3238 6.9093 37.3238 5.94876ZM37.3388 8.80155V8.06194C36.9005 8.57583 36.248 8.8928 35.471 8.8928C33.8474 8.8928 32.6172 7.6393 32.6172 5.94876C32.6172 4.27263 33.8972 2.99512 35.5059 2.99512C36.263 2.99512 36.9005 3.3169 37.3388 3.81637V3.09597H38.7931V8.80155H37.3388Z" fill="black"/>
<path id="Vector_8" d="M23.2786 3.653C23.2786 3.653 23.6472 2.99023 24.5586 2.99023C24.9471 2.99023 25.1962 3.11991 25.1962 3.11991V4.57512C25.1962 4.57512 24.6483 4.24854 24.1453 4.31577C23.6422 4.38301 23.3235 4.82486 23.3235 5.42039V8.79667H21.8193V3.09589H23.2737V3.653H23.2786Z" fill="black"/>
</g>
</g>
</g>
</svg>
