<svg width="25" height="15" viewBox="0 0 25 15" fill="none" xmlns="http://www.w3.org/2000/svg">
<g id="mastercard">
<path id="Fill 1" fill-rule="evenodd" clip-rule="evenodd" d="M9.33008 13.0568H15.6904V1.6272H9.33008V13.0568Z" fill="#F16522"/>
<g id="Group 7">
<g id="Group 4">
<mask id="mask0_35519_3917" style="mask-type:luminance" maskUnits="userSpaceOnUse" x="0" y="0" width="13" height="15">
<path id="Clip 3" fill-rule="evenodd" clip-rule="evenodd" d="M0.75 0.072998H12.5108V14.6111H0.75V0.072998Z" fill="white"/>
</mask>
<g mask="url(#mask0_35519_3917)">
<path id="Fill 2" fill-rule="evenodd" clip-rule="evenodd" d="M9.73453 7.34206C9.73453 5.02337 10.8203 2.95838 12.5108 1.62725C11.2742 0.653708 9.71429 0.072998 8.01858 0.072998C4.00424 0.072998 0.75 3.32765 0.75 7.34206C0.75 11.3565 4.00424 14.6111 8.01858 14.6111C9.71429 14.6111 11.2742 14.0304 12.5108 13.0569C10.8203 11.7257 9.73453 9.66083 9.73453 7.34206Z" fill="#E41B24"/>
</g>
</g>
<path id="Fill 5" fill-rule="evenodd" clip-rule="evenodd" d="M24.0452 11.846V11.5641H23.9714L23.8869 11.7582L23.8022 11.5641H23.7285V11.846H23.7802V11.6332L23.8596 11.8169H23.9137L23.993 11.6327V11.846H24.0452ZM23.5786 11.846V11.612H23.673V11.5646H23.4325V11.612H23.5269V11.846H23.5786ZM24.2721 7.34158C24.2721 11.3564 21.0179 14.6106 17.0035 14.6106C15.3079 14.6106 13.7479 14.0299 12.5117 13.0563C14.2023 11.7257 15.2876 9.66028 15.2876 7.34158C15.2876 5.02288 14.2023 2.95783 12.5117 1.62676C13.7479 0.653708 15.3079 0.072998 17.0035 0.072998C21.0179 0.072998 24.2721 3.32717 24.2721 7.34158Z" fill="#F89E1B"/>
</g>
</g>
</svg>
