<svg width="47" height="11" viewBox="0 0 47 11" fill="none" xmlns="http://www.w3.org/2000/svg">
<g id="paypal">
<path id="Fill 1" fill-rule="evenodd" clip-rule="evenodd" d="M18.0524 2.67529H15.5124C15.3386 2.67529 15.1908 2.79417 15.1637 2.95564L14.1364 9.08637C14.1161 9.2073 14.2155 9.31638 14.346 9.31638H15.5585C15.7323 9.31638 15.8802 9.19751 15.9072 9.03564L16.1842 7.38215C16.211 7.22029 16.3592 7.10141 16.5326 7.10141H17.3368C19.0098 7.10141 19.9754 6.3393 20.2276 4.82916C20.3412 4.16839 20.2325 3.64921 19.9037 3.28563C19.5428 2.88641 18.9025 2.67529 18.0524 2.67529ZM18.3455 4.91443C18.2065 5.77221 17.5103 5.77221 16.8369 5.77221H16.4537L16.7225 4.17013C16.7385 4.07329 16.8276 4.0019 16.9317 4.0019H17.1073C17.5659 4.0019 17.9986 4.0019 18.2221 4.24807C18.3555 4.39486 18.3964 4.61303 18.3455 4.91443Z" fill="#253B80"/>
<path id="Fill 3" fill-rule="evenodd" clip-rule="evenodd" d="M25.6444 4.88677H24.4281C24.3245 4.88677 24.235 4.95815 24.219 5.0549L24.1651 5.37519L24.0801 5.25906C23.8168 4.8993 23.2296 4.77905 22.6436 4.77905C21.2995 4.77905 20.1515 5.73731 19.928 7.08156C19.8118 7.75193 19.9771 8.39311 20.3811 8.84032C20.7518 9.25139 21.282 9.42265 21.913 9.42265C22.996 9.42265 23.5965 8.76717 23.5965 8.76717L23.5423 9.08532C23.5219 9.20703 23.6215 9.31602 23.7511 9.31602H24.8466C25.0208 9.31602 25.1679 9.19714 25.1954 9.03538L25.8528 5.11678C25.8736 4.99624 25.7743 4.88677 25.6444 4.88677ZM23.9491 7.11506C23.8317 7.76907 23.2802 8.20815 22.5768 8.20815C22.2236 8.20815 21.9413 8.10161 21.76 7.8995C21.5804 7.69886 21.5119 7.41323 21.5692 7.09508C21.6787 6.44665 22.2396 5.99318 22.9322 5.99318C23.2776 5.99318 23.5584 6.10129 23.7433 6.30506C23.9286 6.51089 24.0022 6.79829 23.9491 7.11506Z" fill="#253B80"/>
<path id="Fill 5" fill-rule="evenodd" clip-rule="evenodd" d="M32.1219 4.88672H30.8997C30.7831 4.88672 30.6735 4.94126 30.6074 5.03252L28.9216 7.36989L28.2071 5.12369C28.1622 4.98317 28.0244 4.88672 27.8684 4.88672H26.6674C26.5214 4.88672 26.42 5.02097 26.4665 5.15032L27.8127 8.86916L26.547 10.5511C26.4474 10.6836 26.5477 10.8657 26.7197 10.8657H27.9406C28.0563 10.8657 28.1648 10.8125 28.2306 10.7231L32.2958 5.19958C32.393 5.06748 32.2932 4.88672 32.1219 4.88672Z" fill="#253B80"/>
<path id="Fill 7" fill-rule="evenodd" clip-rule="evenodd" d="M36.1686 2.67529H33.6283C33.4549 2.67529 33.3071 2.79417 33.2799 2.95564L32.2527 9.08637C32.2323 9.2073 32.3317 9.31638 32.4613 9.31638H33.765C33.8861 9.31638 33.9897 9.23325 34.0085 9.11986L34.3001 7.38215C34.3269 7.22029 34.4751 7.10141 34.6485 7.10141H35.4521C37.1256 7.10141 38.0909 6.3393 38.3434 4.82916C38.4575 4.16839 38.3478 3.64921 38.0192 3.28563C37.6586 2.88641 37.0187 2.67529 36.1686 2.67529ZM36.4618 4.91443C36.3233 5.77221 35.627 5.77221 34.9532 5.77221H34.5704L34.8396 4.17013C34.8556 4.07329 34.944 4.0019 35.0483 4.0019H35.224C35.6822 4.0019 36.1153 4.0019 36.339 4.24807C36.4722 4.39486 36.5128 4.61303 36.4618 4.91443Z" fill="#179BD7"/>
<path id="Fill 9" fill-rule="evenodd" clip-rule="evenodd" d="M43.761 4.88677H42.5454C42.4411 4.88677 42.3523 4.95815 42.3368 5.0549L42.2829 5.37519L42.1975 5.25906C41.9341 4.8993 41.3474 4.77905 40.7613 4.77905C39.4172 4.77905 38.2696 5.73731 38.046 7.08156C37.9302 7.75193 38.0947 8.39311 38.4988 8.84032C38.8702 9.25139 39.3998 9.42265 40.0308 9.42265C41.1137 9.42265 41.7143 8.76717 41.7143 8.76717L41.6601 9.08532C41.6396 9.20703 41.7391 9.31602 41.8695 9.31602H42.9648C43.1382 9.31602 43.286 9.19714 43.3131 9.03538L43.9708 5.11678C43.9909 4.99624 43.8914 4.88677 43.761 4.88677ZM42.0656 7.11506C41.949 7.76907 41.3967 8.20815 40.6933 8.20815C40.3409 8.20815 40.0578 8.10161 39.8766 7.8995C39.697 7.69886 39.6292 7.41323 39.6857 7.09508C39.7961 6.44665 40.3562 5.99318 41.0488 5.99318C41.3941 5.99318 41.6748 6.10129 41.8599 6.30506C42.0459 6.51089 42.1195 6.79829 42.0656 7.11506Z" fill="#179BD7"/>
<path id="Fill 11" fill-rule="evenodd" clip-rule="evenodd" d="M45.1946 2.84333L44.1521 9.08617C44.1316 9.2072 44.2312 9.31629 44.3607 9.31629H45.4089C45.583 9.31629 45.7308 9.19741 45.7576 9.03555L46.7856 2.90521C46.8059 2.78418 46.7064 2.6748 46.5768 2.6748H45.4032C45.2996 2.6752 45.2105 2.74648 45.1946 2.84333Z" fill="#179BD7"/>
<path id="Fill 13" fill-rule="evenodd" clip-rule="evenodd" d="M3.5886 10.5077L3.78282 9.34639L3.35017 9.33689H1.28418L2.71987 0.767538C2.72434 0.741687 2.7389 0.717599 2.76002 0.700365C2.78114 0.683229 2.80829 0.673828 2.83659 0.673828H6.32016C7.47664 0.673828 8.27474 0.900417 8.69147 1.34752C8.88684 1.55727 9.01125 1.77642 9.07138 2.0176C9.13453 2.27072 9.13567 2.5731 9.07398 2.94197L9.06951 2.9689V3.20518L9.26487 3.30937C9.42934 3.39152 9.5601 3.48563 9.66039 3.59324C9.82756 3.77253 9.93564 4.00049 9.98131 4.27076C10.0284 4.54866 10.0128 4.87933 9.93564 5.25378C9.84649 5.68444 9.70241 6.05957 9.50778 6.36646C9.32875 6.64935 9.10072 6.88387 8.83004 7.06571C8.57153 7.23835 8.26434 7.36946 7.91709 7.45338C7.58067 7.53583 7.19701 7.57745 6.77622 7.57745H6.50512C6.31121 7.57745 6.12292 7.64315 5.9751 7.76095C5.82697 7.88129 5.72887 8.04551 5.6988 8.22519L5.67841 8.32977L5.33523 10.3766L5.31962 10.4518C5.31557 10.4755 5.30849 10.4875 5.29809 10.4955C5.28883 10.5028 5.27541 10.5077 5.26241 10.5077H3.5886Z" fill="#253B80"/>
<path id="Fill 15" fill-rule="evenodd" clip-rule="evenodd" d="M9.44902 2.99609C9.43862 3.05867 9.42676 3.12261 9.41334 3.18831C8.95395 5.40857 7.3822 6.17558 5.37488 6.17558H4.35281C4.1073 6.17558 3.90049 6.34342 3.86221 6.57138L3.33895 9.69525L3.19071 10.5807C3.16585 10.7304 3.2884 10.8653 3.44881 10.8653H5.26159C5.47631 10.8653 5.65856 10.7184 5.69237 10.5192L5.71026 10.4325L6.05147 8.39369L6.07342 8.28176C6.10692 8.08191 6.28959 7.93503 6.5042 7.93503H6.7754C8.5317 7.93503 9.90653 7.26388 10.3084 5.32152C10.4763 4.51015 10.3893 3.83263 9.94523 3.35615C9.81072 3.2125 9.64397 3.09333 9.44902 2.99609Z" fill="#179BD7"/>
<path id="Fill 17" fill-rule="evenodd" clip-rule="evenodd" d="M8.96851 2.81585C8.89839 2.79666 8.82589 2.77913 8.75161 2.76346C8.67702 2.74809 8.60046 2.73438 8.52181 2.72253C8.24614 2.68062 7.94425 2.66064 7.62072 2.66064H4.89031C4.82311 2.66064 4.75923 2.67504 4.70202 2.70089C4.57614 2.75788 4.48252 2.8701 4.45984 3.00748L3.87905 6.47045L3.8623 6.57151C3.90059 6.34355 4.10739 6.17581 4.3529 6.17581H5.37497C7.38229 6.17581 8.95405 5.4084 9.41343 3.18854C9.42717 3.12283 9.43871 3.05879 9.44912 2.99622C9.33281 2.93825 9.20694 2.8886 9.07139 2.8463C9.038 2.83583 9.00346 2.82574 8.96851 2.81585Z" fill="#222D65"/>
<path id="Fill 19" fill-rule="evenodd" clip-rule="evenodd" d="M4.46016 3.00737C4.48283 2.86999 4.57646 2.75777 4.70233 2.70117C4.75986 2.67522 4.82342 2.66093 4.89062 2.66093H7.62104C7.94456 2.66093 8.24645 2.6809 8.52202 2.72281C8.60077 2.73466 8.67733 2.74827 8.75192 2.76374C8.8262 2.77941 8.8987 2.79694 8.96882 2.81613C9.00377 2.82592 9.03831 2.83611 9.07201 2.84619C9.20767 2.88849 9.33354 2.93843 9.44974 2.99621C9.58643 2.17573 9.4487 1.61709 8.97735 1.11123C8.45783 0.554355 7.52002 0.315918 6.32007 0.315918H2.83649C2.5913 0.315918 2.3822 0.483754 2.34434 0.712008L0.89336 9.36948C0.864752 9.54084 1.00519 9.69536 1.18859 9.69536H3.33936L3.87937 6.47044L4.46016 3.00737Z" fill="#253B80"/>
</g>
</svg>
