<svg width="33" height="12" viewBox="0 0 33 12" fill="none" xmlns="http://www.w3.org/2000/svg">
<g id="visa">
<g id="Group 3">
<mask id="mask0_35519_3899" style="mask-type:luminance" maskUnits="userSpaceOnUse" x="23" y="0" width="10" height="12">
<path id="Clip 2" fill-rule="evenodd" clip-rule="evenodd" d="M28.1839 0.947325C27.5511 0.947325 27.1834 1.19238 26.938 1.77761C25.8051 4.47955 24.672 7.18149 23.5396 9.88361C23.3812 10.2613 23.2252 10.64 23.0605 11.0366C23.9643 11.0366 24.8427 11.0386 25.7211 11.0309C25.7673 11.0305 25.8349 10.9567 25.8553 10.903C26.0055 10.507 26.1523 10.1093 26.2865 9.7076C26.3315 9.57322 26.3901 9.52449 26.5376 9.52568C27.512 9.53343 28.4868 9.53652 29.4611 9.52396C29.6564 9.52145 29.7123 9.58924 29.7436 9.76424C29.8189 10.1858 29.9143 10.6038 30.0031 11.0311H32.4332V10.9593C32.3547 10.6188 32.2703 10.2794 32.1987 9.93734C31.64 7.26738 31.0841 4.59683 30.5268 1.92658C30.4589 1.60129 30.3879 1.27666 30.3174 0.947325C29.8353 0.947325 29.3611 0.947266 28.8897 0.947266C28.654 0.947266 28.4189 0.947325 28.1839 0.947325ZM28.4514 3.74999C28.4619 3.75202 28.4724 3.75404 28.4828 3.75607C28.7383 4.98109 28.9938 6.20605 29.2528 7.44769H27.1109C27.5611 6.20605 28.0063 4.97799 28.4514 3.74999Z" fill="white"/>
</mask>
<g mask="url(#mask0_35519_3899)">
<path id="Fill 1" fill-rule="evenodd" clip-rule="evenodd" d="M28.1839 0.947325C27.5511 0.947325 27.1834 1.19238 26.938 1.77761C25.8051 4.47955 24.672 7.18149 23.5396 9.88361C23.3812 10.2613 23.2252 10.64 23.0605 11.0366C23.9643 11.0366 24.8427 11.0386 25.7211 11.0309C25.7673 11.0305 25.8349 10.9567 25.8553 10.903C26.0055 10.507 26.1523 10.1093 26.2865 9.7076C26.3315 9.57322 26.3901 9.52449 26.5376 9.52568C27.512 9.53343 28.4868 9.53652 29.4611 9.52396C29.6564 9.52145 29.7123 9.58924 29.7436 9.76424C29.8189 10.1858 29.9143 10.6038 30.0031 11.0311H32.4332V10.9593C32.3547 10.6188 32.2703 10.2794 32.1987 9.93734C31.64 7.26738 31.0841 4.59683 30.5268 1.92658C30.4589 1.60129 30.3879 1.27666 30.3174 0.947325C29.8353 0.947325 29.3611 0.947266 28.8897 0.947266C28.654 0.947266 28.4189 0.947325 28.1839 0.947325ZM28.4514 3.74999C28.4619 3.75202 28.4724 3.75404 28.4828 3.75607C28.7383 4.98109 28.9938 6.20605 29.2528 7.44769H27.1109C27.5611 6.20605 28.0063 4.97799 28.4514 3.74999Z" fill="url(#paint0_linear_35519_3899)"/>
</g>
</g>
<g id="Group 6">
<mask id="mask1_35519_3899" style="mask-type:luminance" maskUnits="userSpaceOnUse" x="15" y="0" width="9" height="12">
<path id="Clip 5" fill-rule="evenodd" clip-rule="evenodd" d="M20.6269 0.767822C20.5767 0.779974 20.5272 0.797426 20.4762 0.803561C19.5588 0.91471 18.6976 1.1793 17.9723 1.77543C17.1386 2.46061 16.7357 3.34241 16.8525 4.42841C16.9305 5.15374 17.3419 5.69941 17.91 6.10869C18.3532 6.42796 18.8507 6.6711 19.319 6.95642C19.6189 7.13905 19.9352 7.30714 20.1984 7.53468C20.5988 7.88093 20.5566 8.43489 20.1169 8.72968C19.9142 8.86555 19.6704 8.9711 19.4313 9.01583C18.5124 9.18797 17.6259 9.02977 16.7673 8.68387C16.5876 8.61144 16.4117 8.52942 16.2245 8.44764C16.0647 9.19608 15.9092 9.92414 15.7539 10.6511C15.7868 10.6716 15.8055 10.6871 15.8269 10.6958C15.8986 10.7252 15.9704 10.7554 16.0441 10.7796C16.8927 11.0584 17.7581 11.1987 18.6379 11.1989H18.643C18.9009 11.1988 19.1601 11.1867 19.4204 11.1624C20.2441 11.0858 21.0345 10.8788 21.733 10.4154C22.8439 9.67844 23.333 8.63682 23.1681 7.31441C23.075 6.56674 22.6311 6.01368 22.0226 5.6115C21.5058 5.26995 20.9476 4.9919 20.4158 4.67215C20.182 4.53146 19.948 4.37885 19.7505 4.19289C19.4641 3.92318 19.4681 3.55339 19.768 3.29649C19.9427 3.14668 20.1675 3.02791 20.3895 2.96602C20.9357 2.81377 21.4952 2.85976 22.0411 2.98032C22.4403 3.06835 22.8286 3.20559 23.2349 3.32466C23.3832 2.63156 23.5346 1.92315 23.6899 1.19723C23.3819 1.10955 23.0982 1.01639 22.8084 0.949556C22.4909 0.876291 22.1678 0.827328 21.8471 0.767822H20.6269Z" fill="white"/>
</mask>
<g mask="url(#mask1_35519_3899)">
<path id="Fill 4" fill-rule="evenodd" clip-rule="evenodd" d="M20.6269 0.767822C20.5767 0.779974 20.5272 0.797426 20.4762 0.803561C19.5588 0.91471 18.6976 1.1793 17.9723 1.77543C17.1386 2.46061 16.7357 3.34241 16.8525 4.42841C16.9305 5.15374 17.3419 5.69941 17.91 6.10869C18.3532 6.42796 18.8507 6.6711 19.319 6.95642C19.6189 7.13905 19.9352 7.30714 20.1984 7.53468C20.5988 7.88093 20.5566 8.43489 20.1169 8.72968C19.9142 8.86555 19.6704 8.9711 19.4313 9.01583C18.5124 9.18797 17.6259 9.02977 16.7673 8.68387C16.5876 8.61144 16.4117 8.52942 16.2245 8.44764C16.0647 9.19608 15.9092 9.92414 15.7539 10.6511C15.7868 10.6716 15.8055 10.6871 15.8269 10.6958C15.8986 10.7252 15.9704 10.7554 16.0441 10.7796C16.8927 11.0584 17.7581 11.1987 18.6379 11.1989H18.643C18.9009 11.1988 19.1601 11.1867 19.4204 11.1624C20.2441 11.0858 21.0345 10.8788 21.733 10.4154C22.8439 9.67844 23.333 8.63682 23.1681 7.31441C23.075 6.56674 22.6311 6.01368 22.0226 5.6115C21.5058 5.26995 20.9476 4.9919 20.4158 4.67215C20.182 4.53146 19.948 4.37885 19.7505 4.19289C19.4641 3.92318 19.4681 3.55339 19.768 3.29649C19.9427 3.14668 20.1675 3.02791 20.3895 2.96602C20.9357 2.81377 21.4952 2.85976 22.0411 2.98032C22.4403 3.06835 22.8286 3.20559 23.2349 3.32466C23.3832 2.63156 23.5346 1.92315 23.6899 1.19723C23.3819 1.10955 23.0982 1.01639 22.8084 0.949556C22.4909 0.876291 22.1678 0.827328 21.8471 0.767822H20.6269Z" fill="url(#paint1_linear_35519_3899)"/>
</g>
</g>
<g id="Group 9">
<mask id="mask2_35519_3899" style="mask-type:luminance" maskUnits="userSpaceOnUse" x="0" y="0" width="13" height="12">
<path id="Clip 8" fill-rule="evenodd" clip-rule="evenodd" d="M9.58412 1.10194C8.73049 3.27375 7.87221 5.44372 7.01423 7.61392C6.99791 7.6552 6.97289 7.69302 6.93709 7.76033C6.91416 7.64721 6.89689 7.56728 6.8817 7.48698C6.53533 5.65017 6.19211 3.81282 5.84139 1.97684C5.71755 1.32829 5.24455 0.947666 4.58933 0.947487C3.20789 0.94701 1.82645 0.947368 0.445071 0.947368C0.157192 0.947368 0.157192 0.947368 0.15332 1.24996C0.185426 1.258 0.219497 1.26694 0.253747 1.27504C1.02726 1.45874 1.78553 1.68467 2.51604 2.00632C2.97177 2.20705 3.21474 2.53407 3.33613 3.01279C3.99772 5.62253 4.67808 8.22756 5.34724 10.8353C5.38578 10.9854 5.44034 11.0441 5.60772 11.0418C6.3969 11.0308 7.18643 11.0334 7.97573 11.0401C8.12 11.0412 8.19261 11.0039 8.25194 10.8617C9.49751 7.87594 10.7498 4.89315 12.0004 1.9097C12.1314 1.59723 12.2606 1.28403 12.3971 0.955588C12.3238 0.952133 12.272 0.947606 12.2202 0.947606C11.9935 0.947547 11.7668 0.947666 11.5401 0.947844C10.9654 0.948261 10.3907 0.948678 9.81612 0.944151C9.81446 0.944151 9.81285 0.944092 9.81124 0.944092C9.68663 0.944092 9.6301 0.984834 9.58412 1.10194Z" fill="white"/>
</mask>
<g mask="url(#mask2_35519_3899)">
<path id="Fill 7" fill-rule="evenodd" clip-rule="evenodd" d="M9.58412 1.10194C8.73049 3.27375 7.87221 5.44372 7.01423 7.61392C6.99791 7.6552 6.97289 7.69302 6.93709 7.76033C6.91416 7.64721 6.89689 7.56728 6.8817 7.48698C6.53533 5.65017 6.19211 3.81282 5.84139 1.97684C5.71755 1.32829 5.24455 0.947666 4.58933 0.947487C3.20789 0.94701 1.82645 0.947368 0.445071 0.947368C0.157192 0.947368 0.157192 0.947368 0.15332 1.24996C0.185426 1.258 0.219497 1.26694 0.253747 1.27504C1.02726 1.45874 1.78553 1.68467 2.51604 2.00632C2.97177 2.20705 3.21474 2.53407 3.33613 3.01279C3.99772 5.62253 4.67808 8.22756 5.34724 10.8353C5.38578 10.9854 5.44034 11.0441 5.60772 11.0418C6.3969 11.0308 7.18643 11.0334 7.97573 11.0401C8.12 11.0412 8.19261 11.0039 8.25194 10.8617C9.49751 7.87594 10.7498 4.89315 12.0004 1.9097C12.1314 1.59723 12.2606 1.28403 12.3971 0.955588C12.3238 0.952133 12.272 0.947606 12.2202 0.947606C11.9935 0.947547 11.7668 0.947666 11.5401 0.947844C10.9654 0.948261 10.3907 0.948678 9.81612 0.944151C9.81446 0.944151 9.81285 0.944092 9.81124 0.944092C9.68663 0.944092 9.6301 0.984834 9.58412 1.10194Z" fill="url(#paint2_linear_35519_3899)"/>
</g>
</g>
<g id="Group 12">
<mask id="mask3_35519_3899" style="mask-type:luminance" maskUnits="userSpaceOnUse" x="11" y="0" width="6" height="12">
<path id="Clip 11" fill-rule="evenodd" clip-rule="evenodd" d="M13.5073 0.958252C12.7889 4.31541 12.0723 7.66441 11.3506 11.0371H11.5656C12.2832 11.0371 13.0009 11.0287 13.7182 11.0425C13.9183 11.0464 13.9866 10.9851 14.0273 10.7924C14.6138 8.01805 15.209 5.24547 15.802 2.47252C15.9092 1.9711 16.0158 1.46956 16.1247 0.958252H13.5073Z" fill="white"/>
</mask>
<g mask="url(#mask3_35519_3899)">
<path id="Fill 10" fill-rule="evenodd" clip-rule="evenodd" d="M13.5073 0.958252C12.7889 4.31541 12.0723 7.66441 11.3506 11.0371H11.5656C12.2832 11.0371 13.0009 11.0287 13.7182 11.0425C13.9183 11.0464 13.9866 10.9851 14.0273 10.7924C14.6138 8.01805 15.209 5.24547 15.802 2.47252C15.9092 1.9711 16.0158 1.46956 16.1247 0.958252H13.5073Z" fill="url(#paint3_linear_35519_3899)"/>
</g>
</g>
</g>
<defs>
<linearGradient id="paint0_linear_35519_3899" x1="2.05281" y1="22.4864" x2="32.3566" y2="22.3144" gradientUnits="userSpaceOnUse">
<stop stop-color="#262860"/>
<stop offset="1" stop-color="#3D439A"/>
</linearGradient>
<linearGradient id="paint1_linear_35519_3899" x1="2.03578" y1="26.0153" x2="32.3397" y2="25.8999" gradientUnits="userSpaceOnUse">
<stop stop-color="#262860"/>
<stop offset="1" stop-color="#3D439A"/>
</linearGradient>
<linearGradient id="paint2_linear_35519_3899" x1="2.08005" y1="18.5044" x2="32.3828" y2="18.2113" gradientUnits="userSpaceOnUse">
<stop stop-color="#262860"/>
<stop offset="1" stop-color="#3D439A"/>
</linearGradient>
<linearGradient id="paint3_linear_35519_3899" x1="2.00646" y1="38.0822" x2="32.3103" y2="38.0375" gradientUnits="userSpaceOnUse">
<stop stop-color="#262860"/>
<stop offset="1" stop-color="#3D439A"/>
</linearGradient>
</defs>
</svg>
